<svg width="43" height="48" viewBox="0 0 43 48" fill="none" xmlns="http://www.w3.org/2000/svg">
<g clip-path="url(#clip0_118_612)">
<path d="M6.10317 9.03648C4.34404 12.6963 2.9444 16.5099 4.56874 19.7698C6.30262 23.2655 12.5036 30.0721 18.7736 34.1658C25.0426 38.2567 32.4959 40.3693 35.318 39.846C37.9459 39.3602 38.7034 35.1296 39.1407 30.6067C39.2318 29.963 38.9141 29.2079 38.3776 28.8576C38.3129 28.8154 38.2485 28.7865 38.1862 28.7568L38.1818 28.7451L30.2609 25.2757L30.2545 25.2781C29.7188 25.0379 29.1937 25.2821 29.0297 25.9001C29.0116 25.9606 29.0053 26.0265 28.9967 26.0867C28.9946 26.0875 28.9957 26.0904 28.9957 26.0904C28.9922 26.1319 28.9896 26.1697 28.9838 26.2053C28.891 27.1174 28.932 27.2121 28.871 27.9915C28.7978 29.1201 28.8513 30.7958 28.986 32.6647C27.2418 32.9432 24.0958 31.9276 20.0773 29.3017C16.0568 26.6833 13.3852 23.9006 12.2852 21.7651C13.2375 20.6015 14.0395 19.4888 14.5005 18.6134C14.8158 17.9977 14.8878 17.9769 15.2371 17.2345C15.2547 17.2044 15.2691 17.1721 15.2813 17.1407C15.307 17.0873 15.3284 17.029 15.3455 16.9723C15.4247 16.68 15.4099 16.3375 15.3039 16.0076C15.1978 15.6776 15.0076 15.3823 14.768 15.1757L14.7678 15.1624L7.62867 8.80135L7.6212 8.80086C7.56491 8.74877 7.50439 8.6983 7.44298 8.65821C7.18509 8.4903 6.90712 8.4361 6.66071 8.50567C6.4143 8.57524 6.21618 8.76385 6.10317 9.03648Z" fill="#FCC21B"/>
<path d="M34.9163 29.2565C35.2279 29.3482 35.6651 29.5592 35.8043 29.6063C36.0861 29.7027 36.3528 29.7848 36.6339 29.9048C37.2618 30.1767 37.6649 30.6984 37.5849 31.4917C37.4774 32.5432 37.0336 34.8405 35.9268 34.5911C35.5161 34.4938 35.3085 32.218 35.2284 31.8371C35.1191 31.3101 34.2451 29.0615 34.9163 29.2565ZM11.6227 19.1807C11.4725 18.9972 11.4442 18.5932 11.4927 18.2568C11.5404 17.9375 11.6392 17.612 11.6505 17.2799C11.6769 16.5304 10.2961 13.9837 10.7786 13.7993C11.0347 13.7014 11.5071 14.0427 11.7426 14.2337C12.1034 14.5241 12.4068 14.9434 12.7668 15.2507C13.023 15.4706 13.3537 15.6821 13.5446 16.0039C13.967 16.7156 13.4664 17.2716 13.2039 17.7333C12.8823 18.2944 12.5483 18.9373 12.0185 19.2201C11.8402 19.3184 11.7097 19.2879 11.6227 19.1807Z" fill="white"/>
</g>
<defs>
<clipPath id="clip0_118_612">
<rect width="29" height="40" fill="white" transform="translate(0.81543 10.4951) rotate(-20.9173)"/>
</clipPath>
</defs>
</svg>
