<svg width="38" height="38" viewBox="0 0 38 38" fill="none" xmlns="http://www.w3.org/2000/svg">
<path d="M27.7469 15.3635C27.7469 10.4472 23.9822 6.44824 19.3536 6.44824C14.725 6.44824 10.9598 10.4472 10.9598 15.3656C10.9614 15.611 11.0781 21.4925 17.8009 31.856C17.9393 32.1402 18.149 32.3836 18.4096 32.5625C18.6702 32.7414 18.9727 32.8497 19.2876 32.8767C20.2588 32.8767 20.9206 31.8074 20.985 31.6987C27.7506 21.3289 27.7506 15.5973 27.7469 15.3635ZM19.3536 18.9539C18.6142 18.9539 17.8915 18.7347 17.2767 18.3239C16.6619 17.9131 16.1828 17.3292 15.8999 16.6461C15.6169 15.963 15.543 15.2114 15.6872 14.4862C15.8315 13.761 16.1876 13.0949 16.7105 12.5722C17.2333 12.0494 17.8995 11.6934 18.6246 11.5492C19.3498 11.405 20.1015 11.4791 20.7845 11.7621C21.4676 12.0452 22.0514 12.5244 22.4621 13.1392C22.8728 13.754 23.092 14.4768 23.0919 15.2162C23.0907 16.2073 22.6965 17.1574 21.9957 17.8581C21.2949 18.5589 20.3447 18.953 19.3536 18.9539Z" fill="#D22F27"/>
<path d="M27.7469 15.3635C27.7469 10.4472 23.9822 6.44824 19.3536 6.44824C18.6645 6.45119 17.9787 6.54434 17.3138 6.72533C21.7444 6.96283 25.2832 10.8541 25.2832 15.6184C25.2864 15.8522 25.2864 21.5839 18.5208 31.9531C18.4297 32.1018 18.3263 32.2425 18.2115 32.3737C18.3474 32.5263 18.513 32.6496 18.6981 32.7361C18.8832 32.8227 19.0839 32.8707 19.2882 32.8772C20.2588 32.8772 20.9206 31.8074 20.985 31.6987C27.7506 21.3289 27.7506 15.5973 27.7469 15.3635Z" fill="#EA5A47"/>
<path d="M19.2876 32.8772C18.9727 32.8501 18.6701 32.7418 18.4095 32.5628C18.1489 32.3838 17.9392 32.1403 17.8009 31.856C11.0781 21.4925 10.9614 15.6115 10.9598 15.3656C10.9598 10.4467 14.725 6.44824 19.3536 6.44824C23.9822 6.44824 27.7469 10.4472 27.7469 15.3635C27.7506 15.5978 27.7506 21.3295 20.985 31.6982C20.9206 31.8074 20.2582 32.8767 19.2876 32.8767V32.8772Z" stroke="black" stroke-width="1.11111" stroke-linecap="round" stroke-linejoin="round"/>
<path d="M19.3536 18.954C18.6142 18.954 17.8915 18.7348 17.2767 18.324C16.6619 17.9132 16.1828 17.3293 15.8999 16.6462C15.6169 15.9631 15.5429 15.2115 15.6872 14.4863C15.8315 13.7611 16.1876 13.095 16.7105 12.5723C17.2333 12.0495 17.8995 11.6935 18.6246 11.5493C19.3498 11.4051 20.1015 11.4792 20.7845 11.7622C21.4676 12.0453 22.0514 12.5245 22.4621 13.1393C22.8728 13.7541 23.092 14.4769 23.0919 15.2163C23.0907 16.2074 22.6965 17.1575 21.9957 17.8582C21.2949 18.559 20.3447 18.9531 19.3536 18.954Z" stroke="black" stroke-width="1.11111" stroke-linecap="round" stroke-linejoin="round"/>
</svg>
