<svg width="40" height="40" viewBox="0 0 40 40" fill="none" xmlns="http://www.w3.org/2000/svg">
<path d="M1.98749 3.40625H38.0156V27.6312H1.98749V3.40625Z" fill="url(#paint0_linear_118_550)"/>
<path d="M37.2781 4.14375V26.8969H2.72187V4.14375H37.2781ZM38.75 2.67188H1.25V28.3687H38.75V2.67188Z" fill="url(#paint1_linear_118_550)"/>
<path d="M20 28.3688H17.0312V31.7531C17.0312 33.2844 18.2406 34.525 19.7281 34.525H20.2688C21.7594 34.525 22.9656 33.2844 22.9656 31.7531V28.3688H20Z" fill="#E59600"/>
<path d="M25.8438 30.3779C24.6 30.1654 23.3062 30.0279 22 29.9592L21.1594 30.8623L20.0187 32.0904L18.8719 30.8592L18.0312 29.9561C16.725 30.0186 15.4312 30.1436 14.1844 30.3373C8.45625 31.2279 3.75 33.5498 3.75 37.7342V38.7436H36.25V37.7342C36.25 33.7842 31.5781 31.3373 25.8438 30.3779Z" fill="url(#paint2_linear_118_550)"/>
<path d="M32.5344 38.7437H7.20001C7.28439 36.825 7.60314 34.425 8.47501 31.9156C8.47501 31.9156 9.12814 31.5844 10.1875 31.2094C10.5156 31.0906 10.8844 30.9688 11.2844 30.8531C12.1281 30.6031 13.1156 30.375 14.1688 30.25L14.9219 34.7906L19.8188 32.2219H20.2156L25.1125 34.7906L25.8656 30.25C29.0188 30.625 31.5594 31.9156 31.5594 31.9156C32.4313 34.425 32.6125 36.825 32.5344 38.7437Z" fill="url(#paint3_linear_118_550)"/>
<path d="M11.2844 30.8531C10.4188 33.9094 10.0094 37.0625 9.92813 38.7438H8.98438C9.05313 37.1219 9.40937 34.1781 10.1875 31.2094C10.5156 31.0906 10.8844 30.9688 11.2844 30.8531Z" fill="url(#paint4_linear_118_550)"/>
<path d="M31.0156 38.7438C30.9437 37.0719 30.525 34.2 29.6969 31.15L28.5969 30.8063C29.5125 33.9469 29.9875 37.0125 30.0719 38.7438H31.0156Z" fill="url(#paint5_linear_118_550)"/>
<path d="M23.1594 28.7125L22 29.9594L21.5844 30.4063L21.1594 30.8625L20.0188 32.0907L18.8719 30.8594L18.45 30.4063L18.0313 29.9563L16.875 28.7125L14.1688 30.25L14.1844 30.3375L14.2625 30.8094L14.3375 31.2657L14.9219 34.7907L20.0188 32.1188L25.1125 34.7907L25.6906 31.3031L25.7688 30.8375L25.8438 30.3781L25.8656 30.25L23.1594 28.7125Z" fill="url(#paint6_linear_118_550)"/>
<path d="M31.5562 38.7436L31.8 37.8998L31.9969 37.2186L31.9781 37.2123L31.9812 37.1967L31.4969 37.0592L32.0094 35.2717C32.0406 35.1623 32.0375 35.053 32.0094 34.953C32.0094 34.9498 32.0062 34.9436 32.0062 34.9405C32.004 34.9294 31.9998 34.9188 31.9937 34.9092C31.9406 34.7405 31.8187 34.6061 31.6531 34.5561L31.6062 34.5436H31.6031L30.4312 34.2061L19.5125 31.0686C19.4969 31.0655 19.4844 31.0655 19.4719 31.0592C18.9839 30.9307 18.465 30.9985 18.0264 31.2479C17.5877 31.4973 17.2641 31.9086 17.125 32.3936L16.675 33.9655C16.6437 34.0717 16.6094 34.1873 16.5719 34.3123L16.1594 35.753L15.3 38.7467L31.5562 38.7436Z" fill="url(#paint7_linear_118_550)"/>
<path d="M31.9625 38.7439L33.0469 34.9596C33.1375 34.6439 32.9562 34.3158 32.6406 34.2283L20.55 30.7596C20.0573 30.6187 19.5288 30.6791 19.0806 30.9276C18.6324 31.176 18.3011 31.5921 18.1594 32.0846L16.25 38.7439H31.9625Z" fill="#424242"/>
<path d="M32.5062 38.744L32.8375 37.594C32.9469 37.2127 32.7187 36.8127 32.3312 36.7034L19.3562 32.9846C17.9406 32.5784 17.6937 33.719 17.2969 35.1034L16.2531 38.744H32.5062Z" fill="url(#paint8_linear_118_550)"/>
<path opacity="0.2" d="M20.1031 31.7408C20.1594 31.7408 20.2219 31.7471 20.2875 31.7627L31.9281 35.1064L31.8312 35.4439C28.1469 34.4158 21.1156 32.4377 19.6625 31.9564C19.7375 31.8533 19.8844 31.7408 20.1031 31.7408ZM20.1031 30.7002C18.6906 30.7002 17.9844 32.4408 19.1281 32.8689C20.3875 33.3377 32.5437 36.7189 32.5437 36.7189L33.0375 34.9939C33.1344 34.6627 32.9781 34.3252 32.6906 34.2439L20.5531 30.7564C20.3969 30.7189 20.2469 30.7002 20.1031 30.7002Z" fill="#424242"/>
<path d="M32.3031 35.0375L19.8656 31.4687C19.5281 31.3718 19.1594 31.6125 19.0469 32.0031L19.0281 32.0718C18.9156 32.4625 19.1 32.8625 19.4375 32.9593L31.875 36.5281C31.875 36.5281 31.7687 36.2687 31.8969 35.8093C32.025 35.3468 32.3031 35.0375 32.3031 35.0375Z" fill="url(#paint9_linear_118_550)"/>
<path d="M17.4594 38.7438L19.8844 30.2969L17.875 29.7188L15.2844 38.7438H17.4594Z" fill="url(#paint10_linear_118_550)"/>
<path d="M28.5406 15.7594H11.4594C9.61874 15.7594 8.11249 17.3656 8.11249 19.325C8.11249 21.2844 9.61874 22.8906 11.4594 22.8906H28.5375C30.3781 22.8906 31.8844 21.2844 31.8844 19.325C31.8844 17.3656 30.3812 15.7594 28.5406 15.7594Z" fill="#E59600"/>
<path d="M20 3.45935C14.5625 3.45935 9.52499 9.27498 9.52499 17.6469C9.52499 25.9719 14.7156 30.0875 20 30.0875C25.2844 30.0875 30.475 25.9687 30.475 17.6437C30.475 9.27498 25.4375 3.45935 20 3.45935Z" fill="#FFCA28"/>
<path d="M15.0594 19.9717C15.9102 19.9717 16.6 19.2581 16.6 18.3779C16.6 17.4977 15.9102 16.7842 15.0594 16.7842C14.2085 16.7842 13.5187 17.4977 13.5187 18.3779C13.5187 19.2581 14.2085 19.9717 15.0594 19.9717Z" fill="#404040"/>
<path d="M24.7906 19.9717C25.6415 19.9717 26.3313 19.2581 26.3313 18.3779C26.3313 17.4977 25.6415 16.7842 24.7906 16.7842C23.9398 16.7842 23.25 17.4977 23.25 18.3779C23.25 19.2581 23.9398 19.9717 24.7906 19.9717Z" fill="#404040"/>
<path d="M21.2062 21.2688C21.1719 21.2563 21.1406 21.2469 21.1062 21.2438H18.8937C18.8594 21.2469 18.825 21.2563 18.7937 21.2688C18.5937 21.35 18.4844 21.5563 18.5781 21.7781C18.6719 22 19.1125 22.6188 20 22.6188C20.8875 22.6188 21.3281 21.9969 21.4219 21.7781C21.5156 21.5563 21.4062 21.35 21.2062 21.2688Z" fill="#E59600"/>
<path d="M22.6656 23.7939C21.6719 24.3845 18.4062 24.3845 17.4125 23.7939C16.8406 23.4532 16.2562 23.9751 16.4937 24.4939C16.7281 25.0032 18.5062 26.1876 20.0469 26.1876C21.5875 26.1876 23.3437 25.0032 23.5781 24.4939C23.8125 23.9751 23.2375 23.4532 22.6656 23.7939Z" fill="#795548"/>
<path d="M12.5031 15.8499C13.4375 14.528 15.5594 14.403 16.775 15.3874C16.9688 15.5436 17.225 15.7624 17.3 16.0061C17.425 16.403 17.0438 16.7124 16.6719 16.6186C16.4344 16.5593 16.2125 16.4311 15.9781 16.3593C15.55 16.2249 15.2406 16.1874 14.8563 16.1874C14.2875 16.1843 13.9219 16.2561 13.3813 16.4749C13.1594 16.5655 12.9781 16.7093 12.725 16.603C12.4344 16.4843 12.325 16.1124 12.5031 15.8499ZM26.8969 16.603C26.8063 16.5624 26.7188 16.5124 26.6281 16.4749C26.0719 16.2436 25.7563 16.1843 25.1531 16.1874C24.6219 16.1905 24.3063 16.2624 23.8906 16.403C23.6375 16.4905 23.3156 16.7093 23.0344 16.6249C22.6219 16.4999 22.6344 16.0499 22.8594 15.7624C23.1281 15.4249 23.4969 15.1686 23.8875 14.9999C24.7938 14.6061 25.9 14.6624 26.7531 15.1718C27.0313 15.3374 27.3344 15.5655 27.5031 15.853C27.7469 16.2593 27.3781 16.7999 26.8969 16.603Z" fill="#6D4C41"/>
<path d="M20 1.2594H19.9875C5.79064 1.3344 8.70001 17.5532 8.70001 17.5532C8.70001 17.5532 9.33751 19.225 9.62814 19.9625C9.66876 20.0688 9.82501 20.0563 9.85001 19.9469C10.1531 18.5907 11.2438 13.7813 11.7938 12.3188C11.9509 11.9021 12.2495 11.5539 12.6374 11.3351C13.0253 11.1163 13.4777 11.0408 13.9156 11.1219C15.3063 11.375 17.525 11.6875 19.9688 11.6875H20.0188C22.4625 11.6875 24.6813 11.375 26.0719 11.1219C26.9781 10.9563 27.8719 11.4594 28.1938 12.3188C28.7406 13.775 29.825 18.5563 30.1313 19.9313C30.1563 20.0438 30.3125 20.0532 30.3531 19.9469L31.2844 17.55C31.2906 17.5532 34.2 1.3344 20 1.2594Z" fill="#543930"/>
<path d="M31.2906 17.5532C31.2906 17.5532 34.2 1.3344 20 1.2594H19.9875C19.7656 1.2594 19.55 1.26565 19.3375 1.27502C18.9156 1.29377 18.5062 1.32502 18.1125 1.3719H18.1C18.0719 1.37502 18.0469 1.38127 18.0187 1.3844C6.06875 2.88752 8.7 17.5532 8.7 17.5532L9.63125 19.9531C9.67187 20.0594 9.825 20.05 9.85 19.9375C10.1562 18.5656 11.2437 13.7781 11.7937 12.3219C11.9509 11.9052 12.2495 11.557 12.6374 11.3382C13.0253 11.1194 13.4777 11.044 13.9156 11.125C15.3062 11.3781 17.525 11.6906 19.9687 11.6906H20.0187C22.4625 11.6906 24.6812 11.3781 26.0719 11.125C26.9781 10.9594 27.8719 11.4625 28.1937 12.3219C28.7437 13.7844 29.8344 18.6031 30.1344 19.9531C30.1594 20.0656 30.3125 20.075 30.3531 19.9688C30.65 19.2313 31.2906 17.5532 31.2906 17.5532Z" fill="url(#paint11_radial_118_550)"/>
<path d="M29.3531 16.5404C29.3313 16.1685 29.3156 16.131 28.825 15.9748C28.4406 15.8529 26.3406 15.681 24.7594 15.7685C24.6469 15.7748 24.5375 15.781 24.4344 15.7904C23 15.9123 21.2781 16.4904 19.9844 16.5217C19.4344 16.5342 17.1688 15.9404 15.5656 15.8154C15.4625 15.8092 15.3594 15.7998 15.2531 15.7967C13.6688 15.7154 11.5594 15.8998 11.175 16.0248C10.6844 16.1842 10.6688 16.2217 10.65 16.5935C10.6281 16.9623 10.6906 17.281 10.9813 17.3779C11.3781 17.5092 11.3813 18.0029 11.6469 19.4217C11.8875 20.7154 12.4656 21.7373 14.95 21.9154C15.0563 21.9217 15.1563 21.9279 15.2563 21.9279C17.4531 21.9592 18.2094 20.5123 18.4594 20.031C18.925 19.1373 18.7781 17.906 20.0094 17.9029C21.2375 17.8998 21.1219 19.1092 21.5938 19.9998C21.8469 20.4779 22.5844 21.931 24.7625 21.8998C24.8688 21.8998 24.9781 21.8935 25.0906 21.8842C27.5719 21.6904 28.1469 20.6654 28.3781 19.3717C28.6344 17.9498 28.6375 17.4529 29.0313 17.3217C29.3156 17.2279 29.375 16.9123 29.3531 16.5404ZM16.6781 21.3029C16.2969 21.481 15.7875 21.5717 15.25 21.5717C14.1281 21.5685 12.8844 21.1748 12.4344 20.381C11.7969 19.2498 11.6313 16.9623 12.4438 16.4842C12.8 16.2748 14.0031 16.131 15.2469 16.1842C16.5375 16.2404 17.8719 16.5092 18.3531 17.1404C19.1531 18.181 17.8844 20.7342 16.6781 21.3029ZM27.5844 20.3342C27.1375 21.1342 25.8844 21.5373 24.7563 21.5404C24.225 21.5435 23.7219 21.456 23.3469 21.281C22.1375 20.7185 20.8563 18.1748 21.6438 17.1279C22.1219 16.4904 23.4625 16.2154 24.7563 16.1529C25.9969 16.0935 27.1969 16.231 27.55 16.4373C28.3688 16.9123 28.2156 19.1998 27.5844 20.3342Z" fill="#212121" stroke="#212121" stroke-width="0.171875" stroke-miterlimit="10"/>
<defs>
<linearGradient id="paint0_linear_118_550" x1="19.9997" y1="3.56094" x2="19.9997" y2="27.6528" gradientUnits="userSpaceOnUse">
<stop stop-color="#26A69A"/>
<stop offset="1" stop-color="#00796B"/>
</linearGradient>
<linearGradient id="paint1_linear_118_550" x1="19.9997" y1="2.67031" x2="19.9997" y2="28.3675" gradientUnits="userSpaceOnUse">
<stop stop-color="#8D6E63"/>
<stop offset="0.779" stop-color="#795548"/>
</linearGradient>
<linearGradient id="paint2_linear_118_550" x1="20" y1="30.0236" x2="20" y2="38.3957" gradientUnits="userSpaceOnUse">
<stop stop-color="#E1F5FE"/>
<stop offset="1" stop-color="#81D4FA"/>
</linearGradient>
<linearGradient id="paint3_linear_118_550" x1="19.8753" y1="30.25" x2="19.8753" y2="38.4912" gradientUnits="userSpaceOnUse">
<stop stop-color="#00BFA5"/>
<stop offset="1" stop-color="#00AB94"/>
</linearGradient>
<linearGradient id="paint4_linear_118_550" x1="10.1344" y1="29.7628" x2="10.1344" y2="38.4525" gradientUnits="userSpaceOnUse">
<stop stop-color="#B2DFDB" stop-opacity="0.2"/>
<stop offset="0.767" stop-color="#B2DFDB" stop-opacity="0.6"/>
</linearGradient>
<linearGradient id="paint5_linear_118_550" x1="29.8072" y1="29.7097" x2="29.8072" y2="38.4516" gradientUnits="userSpaceOnUse">
<stop stop-color="#B2DFDB" stop-opacity="0.2"/>
<stop offset="0.767" stop-color="#B2DFDB" stop-opacity="0.6"/>
</linearGradient>
<linearGradient id="paint6_linear_118_550" x1="20.0172" y1="36.1572" x2="20.0172" y2="29.005" gradientUnits="userSpaceOnUse">
<stop stop-color="#E1F5FE"/>
<stop offset="1" stop-color="#81D4FA"/>
</linearGradient>
<linearGradient id="paint7_linear_118_550" x1="24.7341" y1="33.4008" x2="22.755" y2="41.7342" gradientUnits="userSpaceOnUse">
<stop offset="0.002" stop-color="#212121" stop-opacity="0.2"/>
<stop offset="1" stop-color="#212121" stop-opacity="0.6"/>
</linearGradient>
<linearGradient id="paint8_linear_118_550" x1="25.59" y1="34.6068" x2="23.9756" y2="40.0234" gradientUnits="userSpaceOnUse">
<stop stop-color="#EF5350"/>
<stop offset="1" stop-color="#E53935"/>
</linearGradient>
<linearGradient id="paint9_linear_118_550" x1="19.0386" y1="32.0367" x2="32.0883" y2="35.7816" gradientUnits="userSpaceOnUse">
<stop offset="0.01" stop-color="#BDBDBD"/>
<stop offset="0.987" stop-color="#F5F5F5"/>
</linearGradient>
<linearGradient id="paint10_linear_118_550" x1="16.4234" y1="38.1394" x2="17.7906" y2="33.8425" gradientUnits="userSpaceOnUse">
<stop stop-color="#212121"/>
<stop offset="1" stop-color="#424242"/>
</linearGradient>
<radialGradient id="paint11_radial_118_550" cx="0" cy="0" r="1" gradientUnits="userSpaceOnUse" gradientTransform="translate(19.9947 14.718) scale(11.9041 13.4302)">
<stop offset="0.794" stop-color="#6D4C41" stop-opacity="0"/>
<stop offset="1" stop-color="#6D4C41"/>
</radialGradient>
</defs>
</svg>
