<svg width="40" height="40" viewBox="0 0 40 40" fill="none" xmlns="http://www.w3.org/2000/svg">
<path d="M21.2656 2.25938L25.4719 11.8531C25.6301 12.2142 25.8823 12.5261 26.2022 12.7565C26.5222 12.9868 26.898 13.127 27.2906 13.1625L37.5375 14.0813C38.6969 14.25 39.1594 15.6719 38.3187 16.4906L30.6 22.975C29.975 23.5 29.6906 24.325 29.8625 25.1219L32.1062 35.625C32.3031 36.7781 31.0937 37.6594 30.0562 37.1125L21.1125 31.875C20.7752 31.677 20.3911 31.5726 20 31.5726C19.6089 31.5726 19.2248 31.677 18.8875 31.875L9.94375 37.1094C8.90937 37.6531 7.69687 36.775 7.89375 35.6219L10.1375 25.1187C10.3062 24.3219 10.025 23.4969 9.4 22.9719L1.67812 16.4937C0.840624 15.6781 1.30312 14.2531 2.45937 14.0844L12.7062 13.1656C13.0988 13.1301 13.4747 12.9899 13.7946 12.7596C14.1146 12.5293 14.3668 12.2173 14.525 11.8562L18.7312 2.2625C19.2531 1.2125 20.7469 1.2125 21.2656 2.25938Z" fill="#FDD835"/>
<path d="M20.9594 12.4282L20.2469 5.3594C20.2187 4.96565 20.1375 4.29065 20.7687 4.29065C21.2687 4.29065 21.5406 5.33127 21.5406 5.33127L23.6781 11.0063C24.4844 13.1656 24.1531 13.9063 23.375 14.3438C22.4812 14.8438 21.1625 14.4531 20.9594 12.4282Z" fill="#FFFF8D"/>
<path d="M29.775 22.3468L35.9062 17.5625C36.2094 17.3093 36.7562 16.9062 36.3187 16.4468C35.9719 16.0843 35.0344 16.6062 35.0344 16.6062L29.6687 18.7031C28.0687 19.2562 27.0062 20.075 26.9125 21.1062C26.7906 22.4812 28.025 23.5406 29.775 22.3468Z" fill="#F4B400"/>
</svg>
