<svg width="40" height="40" viewBox="0 0 40 40" fill="none" xmlns="http://www.w3.org/2000/svg">
<path d="M23.05 27.8373H16.9469V33.8779C16.9469 35.3936 18.1906 36.6217 19.7219 36.6217H20.275C21.8062 36.6217 23.05 35.3936 23.05 33.8779V27.8373ZM28.5406 15.7529H11.4594C9.61874 15.7529 8.11249 17.3592 8.11249 19.3186C8.11249 21.2811 9.61874 22.8842 11.4594 22.8842H28.5375C30.3781 22.8842 31.8844 21.2779 31.8844 19.3186C31.8875 17.3592 30.3812 15.7529 28.5406 15.7529Z" fill="#E59600"/>
<path d="M20 3.45312C14.5625 3.45312 9.52499 9.26875 9.52499 17.6375C9.52499 25.9625 14.7156 30.0781 20 30.0781C25.2844 30.0781 30.475 25.9625 30.475 17.6375C30.475 9.26875 25.4375 3.45312 20 3.45312Z" fill="#FFCA28"/>
<path d="M14.8625 19.9658C15.7134 19.9658 16.4031 19.2523 16.4031 18.3721C16.4031 17.4919 15.7134 16.7783 14.8625 16.7783C14.0116 16.7783 13.3219 17.4919 13.3219 18.3721C13.3219 19.2523 14.0116 19.9658 14.8625 19.9658Z" fill="#404040"/>
<path d="M25.1375 19.9658C25.9884 19.9658 26.6781 19.2523 26.6781 18.3721C26.6781 17.4919 25.9884 16.7783 25.1375 16.7783C24.2866 16.7783 23.5969 17.4919 23.5969 18.3721C23.5969 19.2523 24.2866 19.9658 25.1375 19.9658Z" fill="#404040"/>
<path d="M21.2063 21.2623C21.1719 21.2498 21.1406 21.2404 21.1063 21.2373H18.8969C18.8625 21.2404 18.8281 21.2498 18.7969 21.2623C18.5969 21.3436 18.4875 21.5498 18.5813 21.7717C18.675 21.9936 19.1156 22.6123 20.0031 22.6123C20.8906 22.6123 21.3313 21.9904 21.425 21.7717C21.5156 21.5498 21.4063 21.3436 21.2063 21.2623Z" fill="#E59600"/>
<path d="M22.6313 23.7875C21.6344 24.3781 18.3719 24.3781 17.3781 23.7875C16.8063 23.4469 16.2219 23.9688 16.4594 24.4875C16.6938 24.9969 18.475 26.1813 20.0125 26.1813C21.55 26.1813 23.3094 24.9969 23.5438 24.4875C23.7781 23.9688 23.2031 23.4469 22.6313 23.7875Z" fill="#795548"/>
<path d="M20.0062 1.5719H19.9937C5.79375 1.6469 8.70312 17.2406 8.70312 17.2406C8.70312 17.2406 9.34062 18.9125 9.63125 19.65C9.67187 19.7563 9.82812 19.7438 9.85312 19.6344C10.1562 18.2782 11.2469 13.4688 11.7969 12.0063C11.954 11.5896 12.2526 11.2414 12.6405 11.0226C13.0284 10.8038 13.4809 10.7283 13.9187 10.8094C15.3125 11.0625 17.5281 11.375 19.975 11.375H20.025C22.4687 11.375 24.6875 11.0625 26.0781 10.8094C26.9844 10.6438 27.8781 11.1469 28.2 12.0063C28.7469 13.4625 29.8312 18.2438 30.1375 19.6188C30.1625 19.7313 30.3188 19.7407 30.3594 19.6344L31.2906 17.2375C31.2969 17.2407 34.2031 1.6469 20.0062 1.5719Z" fill="#543930"/>
<path d="M31.2969 17.2406C31.2969 17.2406 34.2063 1.6469 20.0063 1.5719H19.9938C19.7719 1.5719 19.5563 1.57815 19.3438 1.58752C18.9219 1.60627 18.5125 1.63752 18.1188 1.6844H18.1063C18.0781 1.68752 18.0531 1.69377 18.025 1.6969C6.07188 3.20002 8.7 17.2406 8.7 17.2406L9.63125 19.6406C9.67188 19.7469 9.825 19.7375 9.85 19.625C10.1563 18.2531 11.2438 13.4656 11.7938 12.0094C11.9512 11.5923 12.2504 11.2438 12.6389 11.025C13.0274 10.8062 13.4804 10.731 13.9188 10.8125C15.3125 11.0625 17.5281 11.375 19.975 11.375H20.025C22.4688 11.375 24.6875 11.0625 26.0781 10.8094C26.9844 10.6438 27.8781 11.1469 28.2 12.0063C28.75 13.4688 29.8406 18.2875 30.1406 19.6375C30.1656 19.75 30.3188 19.7594 30.3594 19.6531C30.6531 18.9188 31.2969 17.2406 31.2969 17.2406Z" fill="url(#paint0_radial_118_518)"/>
<path d="M36.4062 16.9625C36.0187 16.9625 35.7031 17.2625 35.7031 17.6313V20.5063C35.7031 20.875 36.0187 21.175 36.4062 21.175C36.7938 21.175 37.1094 20.875 37.1094 20.5063V17.6313C37.1094 17.2625 36.7938 16.9625 36.4062 16.9625ZM35 16.9625C34.6125 16.9625 34.2969 17.2625 34.2969 17.6313V20.5063C34.2969 20.875 34.6125 21.175 35 21.175C35.3875 21.175 35.7031 20.875 35.7031 20.5063V17.6313C35.7031 17.2625 35.3875 16.9625 35 16.9625Z" fill="#E8AD00"/>
<path d="M35.7031 16.9625C35.3156 16.9625 35 17.2625 35 17.6313V21.1281C35 21.4969 35.3156 21.7969 35.7031 21.7969C36.0906 21.7969 36.4062 21.4969 36.4062 21.1281V17.6313C36.4062 17.2625 36.0906 16.9625 35.7031 16.9625Z" fill="#FFCA28"/>
<path d="M35.7031 17.4C36.1795 17.4 36.5656 17.032 36.5656 16.5781C36.5656 16.1242 36.1795 15.7562 35.7031 15.7562C35.2268 15.7562 34.8406 16.1242 34.8406 16.5781C34.8406 17.032 35.2268 17.4 35.7031 17.4Z" fill="#FFCA28"/>
<path d="M35.7031 16.5687C35.5312 16.5687 35.3906 16.4281 35.3906 16.2562V4.38123C35.3906 4.20935 35.5312 4.06873 35.7031 4.06873C35.875 4.06873 36.0156 4.20935 36.0156 4.38123V16.2562C36.0156 16.4312 35.875 16.5687 35.7031 16.5687Z" fill="#504F4F"/>
<path d="M36.25 4.05627C26.6156 1.6344 20 1.55627 20 1.55627C20 1.55627 13.3844 1.6344 3.75 4.05627V4.2969C3.75 4.71252 4.02188 5.07815 4.41875 5.19377C5.58125 5.53752 8.52187 6.2969 10.1 6.61252C10.075 6.63752 9.75625 7.1969 9.52812 7.71565C9.52812 7.71565 12.0719 9.50315 20.0031 10.3032C27.9344 9.50315 30.5531 7.9344 30.5531 7.9344C30.2781 7.36877 29.9938 6.84377 29.9938 6.84377C31.4 6.61252 34.4406 5.5719 35.6031 5.20002C35.9938 5.07502 36.2562 4.71565 36.2562 4.30627V4.05627H36.25Z" fill="url(#paint1_linear_118_518)"/>
<path d="M20 1.55627C20 1.55627 13.3844 1.6344 3.75 4.05627C3.75 4.05627 14.8156 7.07815 20 6.98752C25.1844 7.07815 36.25 4.05627 36.25 4.05627C26.6156 1.6344 20 1.55627 20 1.55627Z" fill="url(#paint2_linear_118_518)"/>
<path opacity="0.4" d="M36.25 4.05627C26.6156 1.6344 20 1.55627 20 1.55627C20 1.55627 13.3844 1.6344 3.75 4.05627V4.2969C3.75 4.71252 4.02188 5.07815 4.41875 5.19377C5.58125 5.53752 8.52187 6.3469 10.1 6.66565C10.1 6.66565 9.8 7.15315 9.52812 7.76877C9.52812 7.76877 12.0719 9.50315 20.0031 10.3063C27.9344 9.50627 30.5531 7.93752 30.5531 7.93752C30.2781 7.3719 29.9938 6.8469 29.9938 6.8469C31.4 6.61565 34.4406 5.57502 35.6031 5.20315C35.9938 5.07815 36.2562 4.71877 36.2562 4.3094V4.05627H36.25Z" fill="url(#paint3_linear_118_518)"/>
<path d="M12.5031 15.85C13.4375 14.5282 15.5594 14.4032 16.775 15.3875C16.9687 15.5438 17.225 15.7625 17.3 16.0063C17.425 16.4032 17.0437 16.7125 16.6719 16.6188C16.4344 16.5594 16.2125 16.4313 15.9781 16.3594C15.55 16.225 15.2406 16.1875 14.8562 16.1875C14.2875 16.1844 13.9219 16.2563 13.3812 16.475C13.1594 16.5657 12.9781 16.7094 12.725 16.6032C12.4344 16.4813 12.3281 16.1125 12.5031 15.85ZM26.8969 16.6C26.8062 16.5594 26.7187 16.5094 26.6281 16.4719C26.0719 16.2407 25.7562 16.1813 25.1531 16.1844C24.6219 16.1875 24.3062 16.2594 23.8906 16.4C23.6375 16.4875 23.3156 16.7063 23.0344 16.6219C22.6219 16.4969 22.6344 16.0469 22.8594 15.7594C23.1281 15.4219 23.4969 15.1657 23.8875 14.9969C24.7937 14.6032 25.9 14.6594 26.7531 15.1688C27.0312 15.3344 27.3344 15.5625 27.5031 15.85C27.7469 16.2594 27.3781 16.7969 26.8969 16.6Z" fill="#6D4C41"/>
<path d="M35.7812 37.8093C35.7812 33.2437 28.9844 31.0781 23.0562 30.5906L20.3687 34.0375C20.2812 34.15 20.1437 34.2187 20 34.2187C19.8562 34.2187 19.7187 34.1531 19.6312 34.0375L16.9375 30.5844C13.6406 30.8375 4.21562 32.0687 4.21562 37.8093V38.75H35.7781L35.7812 37.8093Z" fill="#212121"/>
<path d="M35.7812 37.8093C35.7812 33.2437 28.9844 31.0781 23.0562 30.5906L20.3687 34.0375C20.2812 34.15 20.1437 34.2187 20 34.2187C19.8562 34.2187 19.7187 34.1531 19.6312 34.0375L16.9375 30.5844C13.6406 30.8375 4.21562 32.0687 4.21562 37.8093V38.75H35.7781L35.7812 37.8093Z" fill="url(#paint4_radial_118_518)"/>
<defs>
<radialGradient id="paint0_radial_118_518" cx="0" cy="0" r="1" gradientUnits="userSpaceOnUse" gradientTransform="translate(20.0003 14.5827) scale(11.8353 13.3526)">
<stop offset="0.794" stop-color="#6D4C41" stop-opacity="0"/>
<stop offset="1" stop-color="#6D4C41"/>
</radialGradient>
<linearGradient id="paint1_linear_118_518" x1="20" y1="0.202837" x2="20" y2="9.15315" gradientUnits="userSpaceOnUse">
<stop offset="0.003" stop-color="#424242"/>
<stop offset="0.472" stop-color="#353535"/>
<stop offset="1" stop-color="#212121"/>
</linearGradient>
<linearGradient id="paint2_linear_118_518" x1="20" y1="0.255024" x2="20" y2="9.94252" gradientUnits="userSpaceOnUse">
<stop offset="0.003" stop-color="#616161"/>
<stop offset="0.324" stop-color="#505050"/>
<stop offset="0.955" stop-color="#242424"/>
<stop offset="1" stop-color="#212121"/>
</linearGradient>
<linearGradient id="paint3_linear_118_518" x1="4.34156" y1="5.93221" x2="35.8503" y2="5.93221" gradientUnits="userSpaceOnUse">
<stop offset="0.001" stop-color="#BFBEBE"/>
<stop offset="0.3" stop-color="#212121" stop-opacity="0"/>
<stop offset="0.7" stop-color="#212121" stop-opacity="0"/>
<stop offset="1" stop-color="#BFBEBE"/>
</linearGradient>
<radialGradient id="paint4_radial_118_518" cx="0" cy="0" r="1" gradientUnits="userSpaceOnUse" gradientTransform="translate(20 38.3135) scale(16.9272 8.88169)">
<stop offset="0.598" stop-color="#212121"/>
<stop offset="1" stop-color="#616161"/>
</radialGradient>
</defs>
</svg>
