<svg width="40" height="39" viewBox="0 0 40 39" fill="none" xmlns="http://www.w3.org/2000/svg">
<path d="M33.8166 5.6745C30.1518 2.0085 25.2719 0 20.0784 0C9.37789 0 0.656784 8.6775 0.656784 19.3245C0.656784 22.737 1.55829 26.052 3.24372 28.977L0.5 39L10.7889 36.309C13.6307 37.8495 16.8251 38.6685 20.0784 38.6685C30.7789 38.6685 39.5 29.991 39.5 19.344C39.5 14.1765 37.4814 9.321 33.8166 5.6745ZM20.0784 35.3925C17.1779 35.3925 14.3362 34.6125 11.8472 33.15L11.2593 32.799L5.14472 34.398L6.77136 28.47L6.3794 27.8655C4.77236 25.311 3.91005 22.347 3.91005 19.3245C3.91005 10.4715 11.1613 3.2565 20.0588 3.2565C24.3703 3.2565 28.4271 4.9335 31.4648 7.9755C34.5221 11.0175 36.1879 15.054 36.1879 19.344C36.2271 28.197 28.9759 35.3925 20.0784 35.3925ZM28.9367 23.3805C28.4467 23.1465 26.0558 21.9765 25.6246 21.801C25.1739 21.645 24.8603 21.567 24.5271 22.035C24.194 22.5225 23.2729 23.6145 22.9985 23.9265C22.7241 24.258 22.4301 24.297 21.9402 24.0435C21.4502 23.8095 19.8824 23.283 18.0402 21.645C16.5899 20.358 15.6296 18.7785 15.3357 18.291C15.0613 17.8035 15.2965 17.55 15.5513 17.2965C15.7668 17.082 16.0412 16.731 16.2764 16.458C16.5116 16.185 16.6095 15.9705 16.7663 15.6585C16.9231 15.327 16.8447 15.054 16.7271 14.82C16.6095 14.586 15.6296 12.207 15.2377 11.232C14.8457 10.296 14.4342 10.413 14.1402 10.3935C13.8462 10.3935 13.5327 10.3935 13.1995 10.3935C12.8663 10.3935 12.3568 10.5105 11.906 10.998C11.4749 11.4855 10.2206 12.6555 10.2206 15.0345C10.2206 17.4135 11.9648 19.7145 12.2 20.0265C12.4352 20.358 15.6296 25.233 20.4899 27.3195C21.6462 27.8265 22.5477 28.119 23.2533 28.3335C24.4095 28.704 25.4678 28.6455 26.3106 28.5285C27.2513 28.392 29.1915 27.3585 29.5834 26.2275C29.995 25.0965 29.995 24.141 29.8578 23.9265C29.7206 23.712 29.4266 23.6145 28.9367 23.3805Z" fill="white"/>
</svg>
